<?xml version="1.0" standalone="no"?>
<!DOCTYPE svg PUBLIC "-//W3C//DTD SVG 20010904//EN"
 "http://www.w3.org/TR/2001/REC-SVG-20010904/DTD/svg10.dtd">
<svg version="1.0" xmlns="http://www.w3.org/2000/svg"
 width="512.000000pt" height="512.000000pt" viewBox="0 0 512.000000 512.000000"
 preserveAspectRatio="xMidYMid meet">
<metadata>
Created by potrace 1.11, written by Peter Selinger 2001-2013
</metadata>
<g transform="translate(0.000000,512.000000) scale(0.100000,-0.100000)"
fill="#000000" stroke="none">
<path d="M2000 4899 c-834 -94 -1525 -718 -1689 -1526 -40 -193 -41 -245 -41
-1656 l0 -1377 183 124 c449 305 844 513 1088 575 80 20 104 21 776 21 424 0
732 4 791 11 744 81 1382 586 1626 1286 406 1168 -391 2407 -1636 2542 -114
13 -987 12 -1098 0z m1017 -249 c606 -47 1122 -391 1388 -925 73 -146 113
-261 147 -415 19 -91 22 -134 22 -325 0 -242 -13 -333 -75 -520 -177 -531
-631 -958 -1164 -1094 -216 -55 -205 -54 -1035 -61 -758 -6 -777 -7 -844 -28
-231 -72 -491 -196 -793 -378 -68 -41 -125 -74 -128 -74 -3 0 -4 537 -2 1193
l3 1192 23 100 c86 383 283 709 571 948 270 224 601 360 945 386 145 12 799
12 942 1z"/>
<path d="M3035 4111 c-52 -15 -80 -28 -113 -56 -150 -126 -106 -377 77 -442
28 -10 51 -22 51 -28 0 -5 16 -109 35 -230 19 -121 31 -222 27 -226 -4 -3 -28
-13 -53 -23 -90 -33 -164 -97 -249 -216 -15 -20 -18 -20 -490 138 l-475 159
-6 70 c-10 135 -93 253 -217 311 -50 24 -69 27 -162 27 -95 0 -110 -3 -163
-28 -74 -37 -147 -110 -184 -184 -25 -52 -28 -68 -28 -158 0 -87 3 -107 27
-157 54 -116 162 -197 290 -218 36 -5 73 -8 81 -4 8 3 17 -2 21 -13 4 -10 62
-161 128 -335 l120 -318 -36 -42 c-35 -40 -66 -118 -66 -163 0 -50 33 -128 71
-170 99 -108 259 -113 367 -11 114 106 99 295 -30 387 -18 13 -62 31 -97 40
l-65 16 -123 329 c-112 298 -122 329 -106 337 10 5 45 37 78 71 l60 62 475
-158 476 -158 -4 -40 c-12 -125 50 -280 151 -377 202 -194 501 -191 698 6 76
77 113 146 135 255 55 267 -136 535 -409 574 l-51 7 -37 235 -38 235 22 15
c111 78 152 188 115 312 -15 51 -77 121 -131 147 -49 23 -129 33 -172 22z"/>
</g>
</svg>
